<svg width="21" height="19" viewBox="0 0 21 19" fill="none" xmlns="http://www.w3.org/2000/svg">
<path d="M12.0713 2.20312C13.8827 0.326708 16.7789 0.267366 18.6582 2.02637L18.8369 2.20312L18.8398 2.20508C20.6605 4.0724 20.7202 7.11401 19.0078 9.07812L18.8369 9.26465L10.4805 17.9199L2.14746 9.28711C1.25416 8.33971 0.750039 7.08364 0.75 5.74512C0.75 4.48163 1.17933 3.30078 1.98145 2.38281L2.14746 2.20312L2.14941 2.2002C3.93781 0.329132 6.82958 0.266982 8.70996 2.04492L8.88867 2.22266L8.8916 2.22461L9.94141 3.3125L10.4863 3.87793L11.0264 3.30762L12.0703 2.20215L12.0713 2.20312Z" stroke="black" stroke-width="1.5"/>
</svg>
